# xmcd
#
# Track frame offsets:
# 150
# 13740
# 32355
# 47280
# 73305
# 89130
# 107167
# 122707
# 143782
# 153877
#
# Disc length: 2285 seconds
#
#
# Revision: 0
# Processed by: cddbd v1.5.2PL0 Copyright (c) Steve Scherf et al.
# Submitted via: FreeRIP 2.35 
#
DISCID=8108eb0a
DTITLE=Mamas New Bag - Mamas New Bag
DYEAR=2013
DGENRE=Blues
TTITLE0=Let The Good Times Roll
TTITLE1=The Sky Is Crying
TTITLE2=Is It True
TTITLE3=Wrong Number
TTITLE4=Hard Headed Woman
TTITLE5=Love and Glory
TTITLE6=Mojo Hanna
TTITLE7=T-Bone Shuffle
TTITLE8=Hound Dog
TTITLE9=Breaking Up Somebody's Home
EXTD=
EXTT0=
EXTT1=
EXTT2=
EXTT3=
EXTT4=
EXTT5=
EXTT6=
EXTT7=
EXTT8=
EXTT9=
PLAYORDER=
